<svg width="177" height="78" viewBox="0 0 177 78" fill="none" xmlns="http://www.w3.org/2000/svg">
<path d="M165.616 70.3227V75.6586C165.616 75.7691 165.706 75.8586 165.816 75.8586H167.371C167.482 75.8586 167.571 75.7691 167.571 75.6586V70.146C167.571 69.3922 167.817 68.8209 168.31 68.4323C168.802 68.0436 169.468 67.8492 170.308 67.8492C171.162 67.8492 171.829 68.0436 172.306 68.4323C172.799 68.8209 173.045 69.3922 173.045 70.146V75.6586C173.045 75.7691 173.134 75.8586 173.245 75.8586H174.8C174.91 75.8586 175 75.7691 175 75.6586V70.3227C175 69.086 174.58 68.1319 173.74 67.4605C172.9 66.7774 171.756 66.4358 170.308 66.4358C168.86 66.4358 167.716 66.7774 166.876 67.4605C166.036 68.1319 165.616 69.086 165.616 70.3227Z" fill="#D7BD3D"/>
<path d="M147.932 76C146.499 76 145.355 75.6584 144.5 74.9752C143.66 74.2921 143.24 73.338 143.24 72.1131V69.8869C143.24 68.6502 143.66 67.6961 144.5 67.0247C145.34 66.3416 146.484 66 147.932 66C149.38 66 150.524 66.3416 151.364 67.0247C152.204 67.6961 152.624 68.6502 152.624 69.8869V72.1131C152.624 73.338 152.197 74.2921 151.343 74.9752C150.503 75.6584 149.366 76 147.932 76ZM147.932 74.5865C148.787 74.5865 149.453 74.3922 149.931 74.0035C150.423 73.6148 150.669 73.0436 150.669 72.2897V69.7102C150.669 68.9564 150.423 68.3852 149.931 67.9965C149.453 67.6078 148.787 67.4134 147.932 67.4134C147.092 67.4134 146.426 67.6078 145.934 67.9965C145.442 68.3852 145.195 68.9564 145.195 69.7102V72.2897C145.195 73.0436 145.442 73.6148 145.934 74.0035C146.426 74.3922 147.092 74.5865 147.932 74.5865Z" fill="#D7BD3D"/>
<path d="M125.352 66.3414V75.6586C125.352 75.7691 125.441 75.8586 125.552 75.8586H127.107C127.217 75.8586 127.307 75.7691 127.307 75.6586V66.3414C127.307 66.2309 127.217 66.1414 127.107 66.1414H125.552C125.441 66.1414 125.352 66.2309 125.352 66.3414Z" fill="#D7BD3D"/>
<path d="M103.16 76C101.828 76 100.792 75.7585 100.054 75.2756C99.3844 74.8184 99.0245 74.1901 98.9738 73.3908C98.9668 73.2806 99.0571 73.1908 99.1675 73.1908H100.722C100.833 73.1908 100.921 73.2808 100.936 73.3902C100.987 73.7446 101.178 74.0315 101.509 74.2509C101.9 74.4982 102.45 74.6219 103.16 74.6219H104.116C104.84 74.6219 105.397 74.4923 105.788 74.2332C106.194 73.9741 106.396 73.6089 106.396 73.1378C106.396 72.3015 105.926 71.8304 104.984 71.7244L101.683 71.3357C100.872 71.2414 100.242 70.9705 99.7929 70.523C99.344 70.0636 99.1196 69.4629 99.1196 68.7208C99.1196 67.8728 99.4744 67.2073 100.184 66.7244C100.908 66.2415 101.9 66 103.16 66H104.116C105.274 66 106.215 66.2356 106.939 66.7067C107.606 67.1217 107.996 67.6569 108.108 68.3122C108.127 68.427 108.035 68.5265 107.918 68.5265H106.341C106.237 68.5265 106.153 68.4459 106.124 68.346C106.049 68.0841 105.857 67.8615 105.549 67.6784C105.187 67.4546 104.709 67.3428 104.116 67.3428H103.16C102.494 67.3428 101.972 67.4664 101.596 67.7138C101.219 67.9611 101.031 68.2968 101.031 68.7208C101.031 69.404 101.415 69.7927 102.182 69.8869L105.267 70.2403C107.294 70.4758 108.308 71.4417 108.308 73.1378C108.308 74.0447 107.938 74.7514 107.2 75.2579C106.476 75.7526 105.448 76 104.116 76H103.16Z" fill="#D7BD3D"/>
<path d="M81.0563 66.3414V75.6586C81.0563 75.7691 81.1458 75.8586 81.2563 75.8586H82.8112C82.9217 75.8586 83.0112 75.7691 83.0112 75.6586V66.3414C83.0112 66.2309 82.9217 66.1414 82.8112 66.1414H81.2563C81.1458 66.1414 81.0563 66.2309 81.0563 66.3414Z" fill="#D7BD3D"/>
<path d="M58.1951 75.8586C58.1144 75.8586 58.0417 75.8102 58.0105 75.7358L54.1158 66.4185C54.0608 66.2867 54.1576 66.1414 54.3004 66.1414H55.9714C56.0533 66.1414 56.1269 66.1912 56.1572 66.2673L58.7136 72.6784C58.8728 73.0671 59.0104 73.444 59.1263 73.8092C59.1542 73.8945 59.1805 73.9754 59.2051 74.0518C59.2645 74.2362 59.5206 74.2398 59.576 74.0542C59.599 73.9771 59.6228 73.8954 59.6476 73.8092C59.7489 73.444 59.872 73.0671 60.0168 72.6784L62.5732 66.2673C62.6035 66.1912 62.6771 66.1414 62.759 66.1414H64.3866C64.5294 66.1414 64.6262 66.2867 64.5711 66.4185L60.6764 75.7358C60.6453 75.8102 60.5725 75.8586 60.4919 75.8586H58.1951Z" fill="#D7BD3D"/>
<rect x="164.6" y="8.88" width="9.8" height="50.96" rx="0.5" fill="white"/>
<path d="M109.72 26.52V56.4C109.72 56.6762 109.944 56.9 110.22 56.9H118.04C118.316 56.9 118.54 56.6762 118.54 56.4V25.54C118.54 21.4894 119.585 18.386 121.676 16.23C123.767 14.0087 126.707 12.898 130.496 12.898C134.351 12.898 137.291 14.0087 139.316 16.23C141.407 18.386 142.452 21.4894 142.452 25.54V57.38C142.452 57.6562 142.676 57.88 142.952 57.88H150.772C151.048 57.88 151.272 57.6562 151.272 57.38V26.422C151.272 19.562 149.41 14.27 145.686 10.546C141.962 6.82202 136.899 4.96002 130.496 4.96002C124.093 4.96002 119.03 6.82202 115.306 10.546C111.582 14.27 109.72 19.5947 109.72 26.52Z" fill="white"/>
<path d="M71.564 59.8401C71.3499 59.8401 71.1595 59.7037 71.0906 59.501L53.1046 6.60101C52.9943 6.27671 53.2355 5.94006 53.578 5.94006H62.0224C62.2391 5.94006 62.4312 6.07967 62.498 6.28581L74.1459 42.2001C74.8646 44.3561 75.4852 46.4467 76.0079 48.4721C76.2863 49.5161 76.5276 50.4396 76.7319 51.2426C76.8584 51.74 77.5537 51.7517 77.6816 51.2546C77.889 50.4488 78.1151 49.5213 78.3599 48.4721C78.8172 46.4467 79.3726 44.3561 80.0259 42.2001L91.6738 6.28581C91.7406 6.07967 91.9327 5.94006 92.1494 5.94006H100.398C100.74 5.94006 100.981 6.27671 100.871 6.60101L82.8852 59.501C82.8162 59.7037 82.6259 59.8401 82.4118 59.8401H71.564Z" fill="white"/>
<path d="M24.656 75.5C18.2533 75.5 13.19 73.638 9.46601 69.914C5.74201 66.19 3.88 60.8654 3.88 53.94V23.56C3.88 16.6347 5.74201 11.31 9.46601 7.586C13.19 3.862 18.2533 2 24.656 2C31.0587 2 36.122 3.862 39.846 7.586C43.57 11.31 45.432 16.602 45.432 23.462V53.94C45.432 60.8654 43.57 66.19 39.846 69.914C36.122 73.638 31.0587 75.5 24.656 75.5ZM24.656 67.562C28.5107 67.562 31.4507 66.484 33.476 64.328C35.5667 62.1067 36.612 58.9707 36.612 54.92V22.58C36.612 18.5293 35.5667 15.426 33.476 13.27C31.4507 11.0487 28.5107 9.938 24.656 9.938C20.8667 9.938 17.9267 11.0487 15.836 13.27C13.7453 15.426 12.7 18.5293 12.7 22.58V54.92C12.7 58.9707 13.7453 62.1067 15.836 64.328C17.9267 66.484 20.8667 67.562 24.656 67.562Z" fill="white"/>
<circle cx="25.4401" cy="39.2399" r="3.92" fill="#A2A19D"/>
</svg>
